<svg xmlns="http://www.w3.org/2000/svg" version="1.1" xmlns:xlink="http://www.w3.org/1999/xlink" xmlns:svgjs="http://svgjs.com/svgjs" width="512" height="512" x="0" y="0" viewBox="0 0 120 120" style="enable-background:new 0 0 512 512" xml:space="preserve" class=""><g><path fill="#594fbd" d="M81 110H19a5 5 0 0 1-5-5V15a5 5 0 0 1 5-5h62a5 5 0 0 1 5 5v90a5 5 0 0 1-5 5z" data-original="#ffba33" class=""></path><path fill="#4533ff" d="M86 36H14V15a5 5 0 0 1 5-5h62a5 5 0 0 1 5 5z" data-original="#e99a00" class=""></path><g fill="#fff"><path d="M28 51a4 4 0 0 1 4-4h34a4 4 0 0 1 0 8H32a4 4 0 0 1-4-4zM28 68a4 4 0 0 1 4-4h20a4 4 0 0 1 0 8H32a4 4 0 0 1-4-4zM32 82a4 4 0 0 0 0 8h16a4 4 0 0 0 0-8z" fill="#ffffff" data-original="#ffffff" class=""></path></g><path fill="#141417" fill-rule="evenodd" d="M103.089 48.535a5 5 0 0 0-7.07 0l-25.451 25.45a4.993 4.993 0 0 0-.995 1.417 3.363 3.363 0 0 1-.209.38c-.147.232-.278.48-.39.742l-4.62 10.839c-1.413 3.314 1.934 6.66 5.248 5.248l10.839-4.62c.146-.063.287-.13.424-.204.13-.07.266-.132.406-.185a4.982 4.982 0 0 0 1.77-1.144l12.725-12.725 12.725-12.725a5 5 0 0 0 0-7.07z" clip-rule="evenodd" data-original="#ff7a00" class=""></path><path fill="#ce3b3b" d="M96.018 48.535a5 5 0 0 1 7.071 0l5.402 5.402a5 5 0 0 1 0 7.071l-.693.693-4.228 4.228-12.473-12.472z" data-original="#ce3b3b" class=""></path></g></svg>